<?xml version="1.0" encoding="UTF-8" standalone="no"?>
<svg width="50px" height="50px" viewBox="0 0 50 50" version="1.1" xmlns="http://www.w3.org/2000/svg" xmlns:xlink="http://www.w3.org/1999/xlink">
    <!-- Generator: Sketch 3.6.1 (26313) - http://www.bohemiancoding.com/sketch -->
    <title>beer</title>
    <desc>Created with Sketch.</desc>
    <defs></defs>
    <g id="Page-1" stroke="none" stroke-width="1" fill="none" fill-rule="evenodd">
        <g id="beer" fill="#000000">
            <path d="M40,35.5 C40,36.605 39.105,37.5 38,37.5 L35,37.5 C33.895,37.5 33,36.605 33,35.5 L33,27.5 C33,26.395 33.895,25.5 35,25.5 L38,25.5 C39.105,25.5 40,26.395 40,27.5 L40,35.5 Z M31,41 C31,42.103 30.103,43.5 29,43.5 L13,43.5 C11.897,43.5 11,42.103 11,41 L11,21 C11,19.897 11.897,19.5 13,19.5 L29,19.5 C30.103,19.5 31,19.897 31,21 L31,27 L31,35 L31,41 Z M11.946,13 L13.167,13.005 L13.022,11.721 C13.013,11.648 13,11.576 13,11.5 C13,9.57 14.57,8 16.5,8 C17.122,8 17.724,8.171 18.288,8.51 L19.141,9.021 L19.656,8.171 C20.481,6.812 21.919,6 23.5,6 C25.234,6 26.784,6.973 27.545,8.54 L27.881,9.232 L28.635,9.085 C28.926,9.029 29.217,9 29.5,9 C31.855,9 34,11.383 34,14 C34,15.531 33.239,17.414 32.176,18.322 C31.334,17.453 30.276,17.5 29,17.5 L14.816,17.5 L13,17.5 L12.956,17.5 L12.762,17.5 C12.303,17.5 11.467,17.267 10.636,17.562 C10.317,17.007 10,15.871 10,15.124 C10,14.039 10.868,13.029 11.946,13 L11.946,13 Z M38,23.5 L35,23.5 C34.268,23.5 33.591,23.212 33,23.556 L33,21 C33,20.662 32.945,20.339 32.866,20.025 C34.705,18.841 36,16.414 36,14 C36,10.088 32.686,6.719 28.985,7.021 C27.801,5.141 25.759,4 23.5,4 C21.523,4 19.704,4.875 18.478,6.381 C17.842,6.13 17.171,6 16.5,6 C13.594,6 11.207,8.266 11.013,11.123 C9.283,11.564 8,13.135 8,15 C8,16.007 8.453,18.074 9.512,19.081 C9.196,19.653 9,20.301 9,21 L9,41 C9,43.206 10.794,45.5 13,45.5 L29,45.5 C31.206,45.5 33,43.206 33,41 L33,38.444 C33.591,38.788 34.268,39.5 35,39.5 L38,39.5 C40.206,39.5 42,37.206 42,35 L42,27 C42,24.794 40.206,23.5 38,23.5 L38,23.5 Z" id="Fill-37"></path>
        </g>
    </g>
</svg>